# xmcd
#
# Track frame offsets: 
#        150
#        17277
#        30901
#        49298
#        67586
#        81271
#        101132
#        117885
#        133095
#        153556
#
# Disc length: 2245 seconds
#
# Revision: 0
# Processed by: cddbd v1.5.2PL0 Copyright (c) Steve Scherf et al.
# Submitted via: ExactAudioCopy v0.99pb5
#
DISCID=7408c30a
DTITLE=Charles Pasi - Mainly blue
DYEAR=2006
DGENRE=Blues
TTITLE0=She's
TTITLE1=If I move
TTITLE2=White boy blues
TTITLE3=Talkin' with my friends
TTITLE4=The private's last night
TTITLE5=This girl
TTITLE6=Happy man
TTITLE7=Balkans boogie
TTITLE8=They call me lazy
TTITLE9=She's (bonus track)
EXTD=
EXTT0=
EXTT1=
EXTT2=
EXTT3=
EXTT4=
EXTT5=
EXTT6=
EXTT7=
EXTT8=
EXTT9=
PLAYORDER=
